<?xml version="1.0" encoding="UTF-8"?>
<svg width="12px" height="12px" viewBox="0 0 12 12" version="1.1" xmlns="http://www.w3.org/2000/svg" xmlns:xlink="http://www.w3.org/1999/xlink">
    <!-- Generator: Sketch 52.1 (67048) - http://www.bohemiancoding.com/sketch -->
    <title>Combined Shape</title>
    <desc>Created with Sketch.</desc>
    <defs>
        <path d="M83.8974928,21.6086039 L89.8586039,21.6086039 C90.2145207,21.6086039 90.5030483,21.8971315 90.5030483,22.2530483 C90.5030483,22.6089652 90.2145207,22.8974928 89.8586039,22.8974928 L83.8974928,22.8974928 L83.8974928,28.8586039 C83.8974928,29.2145207 83.6089652,29.5030483 83.2530483,29.5030483 C82.8971315,29.5030483 82.6086039,29.2145207 82.6086039,28.8586039 L82.6086039,22.8974928 L76.6474928,22.8974928 C76.2915759,22.8974928 76.0030483,22.6089652 76.0030483,22.2530483 C76.0030483,21.8971315 76.2915759,21.6086039 76.6474928,21.6086039 L82.6086039,21.6086039 L82.6086039,15.6474928 C82.6086039,15.2915759 82.8971315,15.0030483 83.2530483,15.0030483 C83.6089652,15.0030483 83.8974928,15.2915759 83.8974928,15.6474928 L83.8974928,21.6086039 Z" id="path-1"></path>
    </defs>
    <g id="04.Host(호스트)" stroke="none" stroke-width="1" fill="none" fill-rule="evenodd">
        <g id="host_새공간등록하기_02" transform="translate(-116.000000, -936.000000)">
            <g id="Group-3" transform="translate(25.000000, 837.000000)">
                <g id="Group" transform="translate(14.000000, 83.000000)">
                    <mask id="mask-2" fill="white">
                        <use xlink:href="#path-1"></use>
                    </mask>
                    <use id="Combined-Shape" fill="#838383" fill-rule="nonzero" transform="translate(83.253048, 22.253048) rotate(-45.000000) translate(-83.253048, -22.253048) " xlink:href="#path-1"></use>
                </g>
            </g>
        </g>
    </g>
</svg>