<?xml version="1.0" encoding="UTF-8"?>
<svg width="26px" height="22px" viewBox="0 0 26 22" version="1.1" xmlns="http://www.w3.org/2000/svg" xmlns:xlink="http://www.w3.org/1999/xlink">
    <!-- Generator: Sketch 52.1 (67048) - http://www.bohemiancoding.com/sketch -->
    <title>btn-gnb_search-close</title>
    <desc>Created with Sketch.</desc>
    <defs>
        <path d="M5.09776695,12.33 L12.4904852,19.7227182 C12.9786406,20.2108736 12.9786406,21.0023298 12.4904852,21.4904852 C12.0023298,21.9786406 11.2108736,21.9786406 10.7227182,21.4904852 L1.3586414,12.1264084 C1.29454724,12.0828104 1.23360664,12.0325965 1.1767767,11.9757666 C0.928728625,11.7277185 0.806722077,11.4013583 0.810757051,11.0762719 C0.810757054,11.0762716 0.810757054,11.0762716 0.810757054,11.0762716 C0.81466293,10.7615924 0.936669477,10.4481068 1.1767767,10.2079996 L1.3586414,10.0261349 L10.7227182,0.66205807 C11.2108736,0.173902705 12.0023298,0.173902705 12.4904852,0.66205807 C12.9786406,1.15021343 12.9786406,1.94166966 12.4904852,2.42982502 L5.09031022,9.83 L24.75,9.83 C25.4403559,9.83 26,10.3896441 26,11.08 C26,11.7703559 25.4403559,12.33 24.75,12.33 L5.09776695,12.33 Z M1.3586414,12.1264084 L1.1767767,11.9445436 C0.936669553,11.7044365 0.814663007,11.3909511 0.810757058,11.0762719 C0.806722077,11.4013583 0.928728625,11.7277185 1.1767767,11.9757666 C1.23360664,12.0325965 1.29454724,12.0828104 1.3586414,12.1264084 Z" id="path-1"></path>
    </defs>
    <g id="01.Common(공통)" stroke="none" stroke-width="1" fill="none" fill-rule="evenodd">
        <g id="MI_01_11_01_00_00" transform="translate(-24.000000, -78.000000)">
            <g id="btn-gnb_search-close" transform="translate(24.000000, 78.000000)">
                <mask id="mask-2" fill="white">
                    <use xlink:href="#path-1"></use>
                </mask>
                <g id="Mask" fill-rule="nonzero"></g>
                <g id="✱-/-Color-/-Icons-/-Black-/-Default" mask="url(#mask-2)" fill="#232323" fill-rule="nonzero">
                    <g transform="translate(-41.000000, -33.000000)" id="Rectangle">
                        <rect x="0" y="0" width="100" height="100"></rect>
                    </g>
                </g>
            </g>
        </g>
    </g>
</svg>