<?xml version="1.0" encoding="UTF-8"?>
<svg width="30px" height="30px" viewBox="0 0 30 30" version="1.1" xmlns="http://www.w3.org/2000/svg" xmlns:xlink="http://www.w3.org/1999/xlink">
    <!-- Generator: Sketch 52.1 (67048) - http://www.bohemiancoding.com/sketch -->
    <title>Combined Shape</title>
    <desc>Created with Sketch.</desc>
    <g id="Symbols" stroke="none" stroke-width="1" fill="none" fill-rule="evenodd">
        <g id="Button/GNB/Close" fill="#000000" fill-rule="nonzero">
            <path d="M15,16.7860767 L6.2584897,25.527587 C6.23182457,25.5599989 6.20334024,25.5914249 6.17303751,25.6217276 C5.67281369,26.1219514 4.86650279,26.1266636 4.37209172,25.6322525 C3.90377933,25.1639401 3.88328612,24.4157876 4.30754279,23.9129911 L4.29989329,23.9053416 L13.2095791,14.9956558 L4.47241299,6.2584897 C4.44000113,6.23182457 4.40857514,6.20334024 4.37827242,6.17303751 C3.8780486,5.67281369 3.87333644,4.86650279 4.36774752,4.37209172 C4.83605991,3.90377933 5.58421244,3.88328612 6.08700887,4.30754279 L6.09465838,4.29989329 L15,13.2052349 L22.7986284,5.40660654 L22.8029726,5.41095074 L23.7415103,4.47241299 C23.7681754,4.44000113 23.7966598,4.40857514 23.8269625,4.37827242 C24.3271863,3.8780486 25.1334972,3.87333644 25.6279083,4.36774752 C26.0962207,4.83605991 26.1167139,5.58421244 25.6924572,6.08700887 L25.7001067,6.09465838 L18.454224,13.3405411 L18.4498798,13.3361969 L16.7904209,14.9956558 L24.5933935,22.7986284 L24.5890493,22.8029726 L25.527587,23.7415103 C25.5599989,23.7681754 25.5914249,23.7966598 25.6217276,23.8269625 C26.1219514,24.3271863 26.1266636,25.1334972 25.6322525,25.6279083 C25.1639401,26.0962207 24.4157876,26.1167139 23.9129911,25.6924572 L23.9053416,25.7001067 L16.6594589,18.454224 L16.6638031,18.4498798 L15,16.7860767 Z" id="Combined-Shape"></path>
        </g>
    </g>
</svg>