<?xml version="1.0" encoding="UTF-8"?>
<svg width="26px" height="26px" viewBox="0 0 26 26" version="1.1" xmlns="http://www.w3.org/2000/svg" xmlns:xlink="http://www.w3.org/1999/xlink">
    <!-- Generator: Sketch 52.1 (67048) - http://www.bohemiancoding.com/sketch -->
    <title>Group 6</title>
    <desc>Created with Sketch.</desc>
    <g id="01.Common(공통)" stroke="none" stroke-width="1" fill="none" fill-rule="evenodd">
        <g id="common_마이페이지_01-copy" transform="translate(-274.000000, -72.000000)" fill="#000000" fill-rule="nonzero">
            <g id="GNB" transform="translate(0.000000, 44.000000)">
                <g id="Button/Search" transform="translate(276.000000, 30.000000)">
                    <g id="Group-6" transform="translate(-2.000000, -2.000000)">
                        <path d="M11.5,22.25 C5.56293894,22.25 0.75,17.4370611 0.75,11.5 C0.75,5.56293894 5.56293894,0.75 11.5,0.75 C17.4370611,0.75 22.25,5.56293894 22.25,11.5 C22.25,17.4370611 17.4370611,22.25 11.5,22.25 Z M11.5,19.75 C16.0563492,19.75 19.75,16.0563492 19.75,11.5 C19.75,6.94365081 16.0563492,3.25 11.5,3.25 C6.94365081,3.25 3.25,6.94365081 3.25,11.5 C3.25,16.0563492 6.94365081,19.75 11.5,19.75 Z" id="Oval"></path>
                        <path d="M23.5544309,18.1056099 C24.7312285,16.9253874 26.5012712,18.6885744 25.3256244,19.8699432 C23.1529818,22.0531603 21.6325428,23.5806586 20.7642299,24.4525163 C20.3294782,24.8890427 20.0581914,25.1612236 19.9493798,25.2700499 C19.9133034,25.3061112 19.9133034,25.3061112 19.8917195,25.3274987 C19.887091,25.3321997 19.887091,25.3321997 19.8488273,25.3679809 C19.8404423,25.3754808 19.8404423,25.3754808 19.7650251,25.4371673 L18.0021063,23.7026941 L18.0708548,23.6167021 C18.1033882,23.580692 18.1033882,23.580692 18.1095811,23.5743899 C18.1245442,23.5589256 18.1245442,23.5589256 18.1349954,23.5483169 C18.1996669,23.4828492 18.1996669,23.4828492 18.3432074,23.3381101 C19.1452375,22.5296709 20.8820103,20.7858081 23.5544309,18.1056099 Z" id="Path-14" transform="translate(21.857263, 21.576297) rotate(90.000000) translate(-21.857263, -21.576297) "></path>
                    </g>
                </g>
            </g>
        </g>
    </g>
</svg>