<?xml version="1.0" encoding="UTF-8"?>
<svg width="26px" height="25px" viewBox="0 0 26 25" version="1.1" xmlns="http://www.w3.org/2000/svg" xmlns:xlink="http://www.w3.org/1999/xlink">
    <!-- Generator: Sketch 52.1 (67048) - http://www.bohemiancoding.com/sketch -->
    <title>Combined Shape</title>
    <desc>Created with Sketch.</desc>
    <g id="C.-검색" stroke="none" stroke-width="1" fill="none" fill-rule="evenodd">
        <g id="00-03-02-비밀번호찾기" transform="translate(-24.000000, -135.000000)" fill="#8E0032" fill-rule="nonzero">
            <g id="Group" transform="translate(24.000000, 135.000000)">
                <g id="+-search">
                    <path d="M19.8384014,16.9951943 L25.6624016,22.8191945 L25.6409997,22.8405964 C26.1230374,23.3448656 26.1207496,24.1397865 25.6306562,24.6298799 C25.1335713,25.1269648 24.3228998,25.1222272 23.8199707,24.6192981 C23.7522522,24.5515796 23.6935659,24.4782816 23.6439208,24.4009209 L18.1967411,18.9537413 C16.2640747,20.7773053 13.6705073,21.893117 10.8193565,21.893117 C4.8439909,21.893117 0,16.9921758 0,10.9465585 C0,4.90094118 4.8439909,0 10.8193565,0 C16.7947221,0 21.638713,4.90094118 21.638713,10.9465585 C21.638713,13.1827422 20.9759825,15.2623171 19.8384014,16.9951943 Z M10.8193565,19.3174562 C15.3887537,19.3174562 19.0929821,15.5696776 19.0929821,10.9465585 C19.0929821,6.32343937 15.3887537,2.57566082 10.8193565,2.57566082 C6.24995928,2.57566082 2.54573094,6.32343937 2.54573094,10.9465585 C2.54573094,15.5696776 6.24995928,19.3174562 10.8193565,19.3174562 Z" id="Combined-Shape"></path>
                </g>
            </g>
        </g>
    </g>
</svg>