<?xml version="1.0" encoding="UTF-8"?>
<svg width="29px" height="26px" viewBox="0 0 29 26" version="1.1" xmlns="http://www.w3.org/2000/svg" xmlns:xlink="http://www.w3.org/1999/xlink">
    <!-- Generator: Sketch 52.1 (67048) - http://www.bohemiancoding.com/sketch -->
    <title>Fill 3</title>
    <desc>Created with Sketch.</desc>
    <g id="01.Common(공통)" stroke="none" stroke-width="1" fill="none" fill-rule="evenodd">
        <g id="common_마이페이지_01-copy" transform="translate(-321.000000, -72.000000)" fill="#232323" fill-rule="nonzero">
            <g id="GNB" transform="translate(0.000000, 44.000000)">
                <g id="Button/Heart" transform="translate(323.000000, 30.000000)">
                    <path d="M18.4587381,-1.25 C22.7616823,-1.25 26.25,2.31439063 26.25,6.68403524 L25,6.68403524 L26.25,6.68403524 C26.25,7.60750183 26.093605,8.51212627 25.7914241,9.36712634 C25.507131,10.1701071 25.0971127,10.9184683 24.5804072,11.5856701 L24.6078605,11.6401156 L23.9782838,12.2791628 L13.6303408,22.7827653 C13.3330569,23.0848322 12.9315522,23.25 12.5155721,23.25 C12.0983372,23.25 11.6960425,23.0832622 11.4030757,22.7833204 L1.49749913,12.7253179 C1.18536376,12.4551398 0.895385962,12.160638 0.629667292,11.8445643 C0.000285717183,11.0985504 -0.488711776,10.2401033 -0.810169599,9.31063237 C-1.10027875,8.47214975 -1.25,7.58796116 -1.25,6.68403524 C-1.25,2.31398996 2.23791012,-1.25 6.54201949,-1.25 C8.89149924,-1.25 11.0503451,-0.176331092 12.4997502,1.57613762 C13.9496404,-0.176492043 16.1085237,-1.25 18.4587381,-1.25 Z M25,6.68403524 L23.75,6.68403524 C23.75,3.68317505 21.3687549,1.25 18.4587381,1.25 C16.3723559,1.25 14.498381,2.51036618 13.6416509,4.43690002 L12.4989342,7.00653375 L11.357154,4.43648377 C10.5015753,2.51064925 8.6274667,1.25 6.54201949,1.25 C3.63084002,1.25 1.25,3.68277195 1.25,6.68403524 C1.25,7.30872098 1.35295068,7.91670297 1.55246508,8.49334579 C1.77325197,9.13173432 2.10882392,9.72083913 2.54187855,10.2341471 C2.72437016,10.4512198 2.92162781,10.6515549 3.20593763,10.9028413 L12.5163549,20.3512837 L21.9558057,10.7698393 L22.1928008,10.5271512 C22.7444931,9.96220658 23.1694947,9.28201676 23.4345379,8.53340759 C23.642295,7.94557265 23.75,7.32258251 23.75,6.68403524 L25,6.68403524 Z" id="Fill-3"></path>
                </g>
            </g>
        </g>
    </g>
</svg>