<?xml version="1.0" encoding="UTF-8"?>
<svg width="27px" height="24px" viewBox="0 0 27 24" version="1.1" xmlns="http://www.w3.org/2000/svg" xmlns:xlink="http://www.w3.org/1999/xlink">
    <!-- Generator: Sketch 52.1 (67048) - http://www.bohemiancoding.com/sketch -->
    <title>Fill 3</title>
    <desc>Created with Sketch.</desc>
    <g id="D.-CLASS(클래스)" stroke="none" stroke-width="1" fill="none" fill-rule="evenodd">
        <g id="MD_02_00_00_00_00" transform="translate(-312.000000, -4213.000000)" fill="#FFFFFF" fill-rule="nonzero">
            <g id="FLOATING" transform="translate(0.000000, 4198.000000)">
                <g id="Group-2" transform="translate(300.000000, 0.000000)">
                    <path d="M31.4587381,15 C35.6181319,15 39,18.3913622 39,22.5597453 L38,22.5597453 L39,22.5597453 C39,23.4422638 38.8477627,24.3064646 38.5537565,25.1228665 C38.2618735,25.9319548 37.8338705,26.6825483 37.291716,27.344851 L37.3111767,27.3827279 L36.7935748,27.8983462 L26.4455449,38.2067204 C26.1956805,38.4558839 25.8612301,38.5909091 25.5155721,38.5909091 C25.1690686,38.5909091 24.8340813,38.4546497 24.5877664,38.2071604 L14.6681553,28.3232782 C14.3657377,28.0663792 14.0846758,27.7862403 13.8267559,27.4851486 C13.215653,26.77427 12.7405359,25.9557001 12.4280153,25.0688733 C12.1457287,24.268171 12,23.4235637 12,22.5597453 C12,18.3909688 15.3814608,15 19.5420195,15 C21.9198519,15 24.0986035,16.1192955 25.4997231,17.9300474 C26.9014008,16.1191097 29.0801518,15 31.4587381,15 Z M38,22.5597453 L37,22.5597453 C37,19.4946785 34.5123053,17 31.4587381,17 C29.2673303,17 27.3043571,18.2956735 26.4103478,20.2686546 L25.4990478,22.2797945 L24.5884899,20.2683185 C23.6956484,18.2959791 21.7325131,17 19.5420195,17 C16.4872894,17 14,19.4942831 14,22.5597453 C14,23.196114 14.1069432,23.8159303 14.3142711,24.4040134 C14.5440043,25.0559174 14.8934567,25.6579822 15.3445262,26.1827008 C15.5350804,26.4051491 15.7412539,26.6106456 16.0212469,26.8526057 L25.5163763,36.3093157 L35.1408859,26.7216889 L35.3782506,26.4831423 C35.9535812,25.9049467 36.3963232,25.2095406 36.6722456,24.4446951 C36.8881373,23.8452027 37,23.210195 37,22.5597453 L38,22.5597453 Z M35.3820788,26.4814203 L36.0878268,27.1898832 L35.1983595,27.646882 L34.8653022,26.9986449 L35.1408859,26.7216889 L35.3820788,26.4814203 Z" id="Fill-3"></path>
                </g>
            </g>
        </g>
    </g>
</svg>